<?xml version="1.0" encoding="utf-8"?>
<!-- Generator: Adobe Illustrator 26.1.0, SVG Export Plug-In . SVG Version: 6.00 Build 0)  -->
<svg version="1.1" id="Layer_1" xmlns="http://www.w3.org/2000/svg" xmlns:xlink="http://www.w3.org/1999/xlink" x="0px" y="0px"
	 viewBox="0 0 312.1 22.9" style="enable-background:new 0 0 312.1 22.9;" xml:space="preserve">
<style type="text/css">
	.st0{fill:#A3CD4D;}
	.st1{fill:#0090DA;}
	.st2{fill:#0060A0;}
	.st3{fill:#231F20;}
	.st4{fill:none;}
	.st5{fill:#007ABC;}
	.st6{enable-background:new    ;}
</style>
<g id="Blue_Lockup" transform="translate(-291 -759.114)">
	<g id="Group_26017" transform="translate(291 759.114)">
		<g id="Logo" transform="translate(0)">
			<path id="Fill_1" class="st0" d="M16.4,19.5c0,1.1-0.1,2.2-0.3,3.2h7.4c0.6,0,1.2-0.5,1.2-1.2c0,0,0,0,0,0V1.2
				c0-0.6-0.5-1.2-1.2-1.2c-0.1,0-0.2,0-0.3,0C18.9,1.2,15,3.8,12.3,7.4C15,10.9,16.4,15.1,16.4,19.5z"/>
			<path id="Fill_3" class="st1" d="M8.5,22.7c-0.2-1.1-0.3-2.2-0.3-3.2c0-4.4,1.4-8.6,4.1-12.1C9.6,3.8,5.8,1.2,1.4,0
				C0.8-0.1,0.2,0.3,0,0.9C0,1,0,1.1,0,1.2v20.4c0,0.6,0.5,1.2,1.2,1.2L8.5,22.7z"/>
			<path id="Fill_5" class="st2" d="M8.3,19.5c0,1.1,0.1,2.2,0.3,3.2h7.6c0.2-1.1,0.3-2.2,0.3-3.2c0-4.4-1.4-8.6-4.1-12.1
				C9.7,10.9,8.3,15.1,8.3,19.5z"/>
			<path id="Fill_7" class="st3" d="M82,5.5c0-1,0.8-1.8,1.8-1.8c1,0,1.8,0.8,1.8,1.8c0,0,0,0,0,0c0,1-0.8,1.8-1.8,1.8
				C82.8,7.3,82,6.5,82,5.5z"/>
			<path id="Fill_9" class="st3" d="M33,4.1h3.2l3.9,7l3.8-7h3.2l0.7,15h-3.4l-0.4-9.8L41,15.1h-1.8l-3.3-5.8l-0.4,9.7h-3.2L33,4.1z
				"/>
			<path id="Fill_11" class="st3" d="M55.1,19.4c-0.8,0-1.7-0.1-2.4-0.4c-0.7-0.3-1.3-0.7-1.8-1.2c-0.5-0.5-0.9-1.1-1.1-1.8
				c-0.3-0.7-0.4-1.5-0.4-2.3c0-0.7,0.1-1.4,0.4-2.1c0.2-0.7,0.6-1.3,1.1-1.8c0.5-0.5,1.1-0.9,1.7-1.2c0.7-0.3,1.5-0.5,2.3-0.5
				c0.8,0,1.5,0.1,2.2,0.5c0.6,0.3,1.2,0.7,1.6,1.2c0.5,0.6,0.8,1.2,1,1.9c0.2,0.8,0.3,1.6,0.3,2.4v0.5h-7.5c0,0.6,0.3,1.1,0.8,1.5
				c0.6,0.5,1.3,0.7,2,0.6c0.7,0,1.4-0.1,2-0.4c0.4-0.2,0.8-0.4,1.1-0.6l1.3,2c-0.1,0.1-0.3,0.2-0.5,0.4c-0.3,0.2-0.6,0.4-0.9,0.5
				c-0.4,0.2-0.9,0.3-1.4,0.4C56.3,19.4,55.7,19.4,55.1,19.4z M54.7,10.7c-0.3,0-0.7,0.1-1,0.2c-0.3,0.1-0.5,0.3-0.7,0.5
				c-0.2,0.2-0.3,0.4-0.4,0.6c-0.1,0.2-0.1,0.4-0.1,0.7h4.5c0-0.2,0-0.5-0.1-0.7c-0.1-0.2-0.2-0.5-0.4-0.6c-0.2-0.2-0.4-0.4-0.7-0.5
				C55.3,10.7,55,10.7,54.7,10.7z"/>
			<path id="Fill_13" class="st3" d="M70.9,4.1h3.4v12.2h6.5v2.8h-9.9V4.1z"/>
			<path id="Clip_16" class="st4" d="M0,22.7h105.9V0H0V22.7z"/>
			<g id="Page_1" transform="translate(60.685 3.66)">
				<path id="Fill_15" class="st3" d="M21.5,15.4h3.2V4.9h-3.2V15.4z"/>
				<path id="Fill_17" class="st3" d="M28.1,7.4h-1.7V4.9h1.7V4.3c0-0.7,0.1-1.3,0.4-1.9c0.2-0.5,0.6-1,1-1.3
					c0.4-0.4,0.9-0.6,1.4-0.8c0.5-0.2,1-0.3,1.6-0.3c0.6,0,1.2,0.1,1.7,0.2c0.6,0.2,1.1,0.5,1.6,0.9c-0.2,0.3-0.5,0.7-0.7,1
					c-0.2,0.3-0.5,0.7-0.7,1c-0.2-0.2-0.5-0.3-0.7-0.4c-0.3-0.1-0.5-0.1-0.8-0.1c-0.4,0-0.8,0.1-1.1,0.4c-0.3,0.3-0.4,0.8-0.4,1.2
					v0.6h2.5v2.5h-2.5v8h-3.2V7.4z"/>
				<path id="Fill_18" class="st3" d="M40.2,15.8c-0.8,0-1.7-0.1-2.4-0.4c-0.7-0.3-1.3-0.7-1.8-1.2c-0.5-0.5-0.9-1.1-1.1-1.8
					c-0.3-0.7-0.4-1.5-0.4-2.3c0-0.7,0.1-1.4,0.4-2.1c0.2-0.7,0.6-1.3,1.1-1.8c0.5-0.5,1.1-0.9,1.7-1.2c0.7-0.3,1.5-0.5,2.3-0.5
					c0.8,0,1.5,0.1,2.2,0.5c0.6,0.3,1.2,0.7,1.6,1.2c0.5,0.6,0.8,1.2,1,1.9c0.2,0.8,0.3,1.6,0.3,2.4v0.5h-7.5c0,0.6,0.3,1.1,0.8,1.5
					c0.6,0.5,1.3,0.7,2,0.6c0.7,0,1.4-0.1,2-0.4c0.4-0.2,0.8-0.4,1.1-0.6l1.3,2c-0.1,0.1-0.3,0.2-0.5,0.4c-0.3,0.2-0.6,0.4-0.9,0.5
					c-0.4,0.2-0.9,0.3-1.4,0.4C41.4,15.7,40.8,15.8,40.2,15.8z M39.8,7c-0.3,0-0.7,0.1-1,0.2c-0.3,0.1-0.5,0.3-0.7,0.5
					c-0.2,0.2-0.3,0.4-0.4,0.6c-0.1,0.2-0.1,0.4-0.1,0.7H42c0-0.2,0-0.5-0.1-0.7c-0.1-0.2-0.2-0.5-0.4-0.6c-0.2-0.2-0.4-0.4-0.7-0.5
					C40.5,7.1,40.2,7,39.8,7z"/>
				<path id="Fill_19" class="st3" d="M7.7,12.6C7.5,12.8,7.3,12.9,7,13c-0.3,0.1-0.6,0.2-0.9,0.2c-0.4,0-0.7-0.1-1-0.4
					C5,12.4,4.9,12,4.9,11.6V7.4h2.7V4.9H4.9V2H1.7v2.8H0v2.5h1.7v4c0,0.6,0.1,1.2,0.2,1.8c0.1,0.5,0.3,1,0.7,1.4
					c0.3,0.4,0.8,0.7,1.2,0.9c0.6,0.2,1.2,0.3,1.9,0.3c1.2,0,2.4-0.4,3.3-1.2L7.7,12.6z"/>
			</g>
		</g>
		<rect id="Rectangle_8777" x="121.7" y="0" class="st5" width="1.2" height="22.7"/>
	</g>
	<g class="st6">
		<path class="st3" d="M438.6,777l-0.1-2.1c-0.5,1-1.9,2.3-4.3,2.3c-3.1,0-6.1-2.3-6.1-6.6c0-4.3,3.1-6.6,6.2-6.6
			c2.8,0,4.9,1.5,5.6,3.8l-1.4,0.6c-0.6-1.9-2.2-3-4.2-3c-2.4,0-4.7,1.7-4.7,5.2c0,3.5,2.3,5.3,4.6,5.3c3,0,4.1-2.2,4.2-3.7h-4.6
			v-1.4h6v6.2H438.6z"/>
		<path class="st3" d="M442.4,777v-13h1.4v13H442.4z"/>
		<path class="st3" d="M454.7,772.7c0,2.7-1.8,4.6-4.3,4.6c-2.5,0-4.3-1.9-4.3-4.6c0-2.6,1.8-4.6,4.3-4.6
			C452.9,768.1,454.7,770,454.7,772.7z M447.5,772.7c0,2.1,1.3,3.3,2.9,3.3c1.5,0,2.9-1.2,2.9-3.3c0-2.1-1.3-3.3-2.9-3.3
			C448.8,769.4,447.5,770.6,447.5,772.7z"/>
		<path class="st3" d="M456.9,777v-13h1.4v5.8c0.4-0.8,1.4-1.7,3-1.7c2.6,0,3.9,2,3.9,4.6c0,2.6-1.5,4.6-4,4.6c-1.4,0-2.4-0.7-3-1.7
			v1.4H456.9z M463.8,772.7c0-1.9-1.1-3.3-2.7-3.3c-1.7,0-2.7,1.4-2.7,3.3s1.1,3.3,2.7,3.3C462.7,776,463.8,774.6,463.8,772.7z"/>
		<path class="st3" d="M469.4,772.1l2.3-0.3c0.6-0.1,0.8-0.4,0.8-0.7c0-1-0.6-1.7-2-1.7c-1.3,0-2,0.8-2.1,1.9l-1.4-0.3
			c0.2-1.6,1.6-2.8,3.5-2.8c2.4,0,3.5,1.4,3.5,3.1v4.4c0,0.7,0.1,1.2,0.1,1.4h-1.4c0-0.2-0.1-0.6-0.1-1.3c-0.4,0.7-1.3,1.5-2.9,1.5
			c-1.8,0-2.8-1.2-2.8-2.5C466.8,773.2,467.9,772.3,469.4,772.1z M472.5,773.4v-0.6l-2.8,0.4c-0.8,0.1-1.4,0.6-1.4,1.4
			c0,0.7,0.6,1.4,1.6,1.4C471.4,776,472.5,775.2,472.5,773.4z"/>
		<path class="st3" d="M476.7,777v-13h1.4v13H476.7z"/>
		<path class="st3" d="M485.9,777v-12.8h4.2c3.2,0,6.1,2.2,6.1,6.4c0,4.2-2.9,6.4-6.1,6.4H485.9z M490.1,775.7c2.5,0,4.6-1.7,4.6-5
			c0-3.4-2.1-5.1-4.6-5.1h-2.7v10.1H490.1z"/>
		<path class="st3" d="M506,774.5c-0.5,1.5-1.8,2.7-3.8,2.7c-2.3,0-4.3-1.7-4.3-4.6c0-2.7,1.9-4.5,4.1-4.5c2.6,0,4.1,1.8,4.1,4.4
			c0,0.2,0,0.4,0,0.5h-6.6v0.1c0,1.6,1.2,2.8,2.8,2.8c1.5,0,2.3-0.8,2.6-1.9L506,774.5z M504.6,771.8c0-1.4-0.9-2.4-2.6-2.4
			c-1.5,0-2.5,1.2-2.6,2.4H504.6z"/>
		<path class="st3" d="M508.8,774.3c0.1,1,0.9,1.7,2.2,1.7c1,0,1.7-0.6,1.7-1.3c0-0.6-0.5-1.1-1.3-1.3l-1.4-0.3
			c-1.3-0.3-2.1-1.2-2.1-2.4c0-1.4,1.4-2.6,3-2.6c2.2,0,3,1.4,3.2,2.3l-1.3,0.5c-0.1-0.6-0.6-1.5-1.9-1.5c-0.9,0-1.6,0.6-1.6,1.3
			c0,0.6,0.4,1,1.1,1.2l1.4,0.3c1.5,0.3,2.3,1.2,2.3,2.5c0,1.2-1.1,2.6-3.1,2.6c-2.3,0-3.3-1.4-3.4-2.5L508.8,774.3z"/>
		<path class="st3" d="M517,763.9c0.6,0,1.1,0.5,1.1,1.1c0,0.6-0.5,1.1-1.1,1.1c-0.6,0-1.1-0.5-1.1-1.1
			C515.9,764.4,516.4,763.9,517,763.9z M516.3,777v-8.6h1.4v8.6H516.3z"/>
		<path class="st3" d="M521.3,777.1c0.1,1.3,1.1,2.2,2.5,2.2c2,0,2.8-1.2,2.8-3V775c-0.4,0.8-1.3,1.6-2.7,1.6
			c-2.3,0-3.9-1.8-3.9-4.2s1.6-4.3,3.9-4.3c1.4,0,2.3,0.6,2.7,1.5v-1.2h1.4v8c0,2.1-1,4.3-4.2,4.3c-2.1,0-3.7-1.4-3.9-3.2
			L521.3,777.1z M524,769.4c-1.6,0-2.6,1.2-2.6,3c0,1.8,1.1,3,2.6,3s2.6-1.2,2.6-3C526.7,770.6,525.6,769.4,524,769.4z"/>
		<path class="st3" d="M532.3,777h-1.4v-8.6h1.4v1.3c0.6-1,1.6-1.5,2.7-1.5c2.1,0,3.1,1.5,3.1,3.3v5.5h-1.4v-5.3
			c0-1.3-0.6-2.3-2.1-2.3c-1.4,0-2.2,1.2-2.2,2.5V777z"/>
		<path class="st3" d="M552.1,767.6c-0.2-1.1-1-2.3-2.9-2.3c-1.5,0-2.6,1-2.6,2.3c0,1,0.7,1.8,1.8,2l1.9,0.4
			c2.1,0.5,3.3,1.7,3.3,3.5c0,2-1.7,3.7-4.3,3.7c-3,0-4.4-1.9-4.7-3.8l1.4-0.5c0.1,1.5,1.2,2.9,3.3,2.9c1.8,0,2.8-1,2.8-2.2
			c0-1-0.7-1.9-2.1-2.2l-1.9-0.4c-1.8-0.4-3-1.5-3-3.4c0-2,1.8-3.7,4.1-3.7c2.8,0,3.9,1.7,4.2,3.2L552.1,767.6z"/>
		<path class="st3" d="M556.1,780.4l2.1-4.4l-3.7-7.6h1.7l2.8,6.1l2.7-6.1h1.6l-5.5,12H556.1z"/>
		<path class="st3" d="M565.3,774.3c0.1,1,0.9,1.7,2.2,1.7c1,0,1.7-0.6,1.7-1.3c0-0.6-0.5-1.1-1.3-1.3l-1.4-0.3
			c-1.3-0.3-2.1-1.2-2.1-2.4c0-1.4,1.4-2.6,3-2.6c2.2,0,3,1.4,3.2,2.3l-1.3,0.5c-0.1-0.6-0.6-1.5-1.9-1.5c-0.9,0-1.6,0.6-1.6,1.3
			c0,0.6,0.4,1,1.1,1.2l1.4,0.3c1.5,0.3,2.3,1.2,2.3,2.5c0,1.2-1.1,2.6-3.1,2.6c-2.3,0-3.3-1.4-3.4-2.5L565.3,774.3z"/>
		<path class="st3" d="M574.9,768.4h2v1.3h-2v4.8c0,0.9,0.4,1.4,1.3,1.4c0.3,0,0.6-0.1,0.7-0.1v1.2c-0.2,0.1-0.6,0.2-1.1,0.2
			c-1.4,0-2.3-0.9-2.3-2.4v-5h-1.7v-1.3h0.6c0.9,0,1.3-0.5,1.3-1.3v-1.4h1.4V768.4z"/>
		<path class="st3" d="M586.4,774.5c-0.5,1.5-1.8,2.7-3.8,2.7c-2.3,0-4.3-1.7-4.3-4.6c0-2.7,1.9-4.5,4.1-4.5c2.6,0,4.1,1.8,4.1,4.4
			c0,0.2,0,0.4,0,0.5h-6.6v0.1c0,1.6,1.2,2.8,2.8,2.8c1.5,0,2.2-0.8,2.6-1.9L586.4,774.5z M585,771.8c0-1.4-0.9-2.4-2.6-2.4
			c-1.5,0-2.5,1.2-2.6,2.4H585z"/>
		<path class="st3" d="M590.1,769.6c0.5-0.9,1.5-1.5,2.6-1.5c1.2,0,2.2,0.6,2.6,1.8c0.6-1.2,1.7-1.8,2.9-1.8c1.6,0,3,1.1,3,3.2v5.6
			h-1.4v-5.5c0-1.2-0.6-2.1-2-2.1c-1.3,0-2.1,1-2.1,2.3v5.2h-1.4v-5.5c0-1.2-0.6-2.1-2-2.1c-1.3,0-2.1,1-2.1,2.4v5.2h-1.4v-8.6h1.4
			V769.6z"/>
	</g>
</g>
</svg>
